{
  "accessors": [
    {
      "bufferView": 2,
      "componentType": 5126,
      "count": 1729,
      "max": [
        0.72781199216842651,
        0.15355600416660309,
        1.1330349445343018
      ],
      "min": [
        -0.72839897871017456,
        -0.2692129909992218,
        0.0032099999953061342
      ],
      "type": "VEC3"
    },
    {
      "bufferView": 2,
      "byteOffset": 20748,
      "componentType": 5126,
      "count": 1729,
      "max": [
        0.99973076581954956,
        0.99828976392745972,
        0.99598687887191772
      ],
      "min": [
        -0.99973487854003906,
        -0.99930381774902344,
        -1
      ],
      "type": "VEC3"
    },
    {
      "bufferView": 3,
      "componentType": 5126,
      "count": 1729,
      "max": [
        0.99988812208175659,
        0.99958503246307373,
        0.99969249963760376,
        1
      ],
      "min": [
        -0.99963939189910889,
        -0.99998509883880615,
        -0.99987763166427612,
        -1
      ],
      "type": "VEC4"
    },
    {
      "bufferView": 1,
      "componentType": 5126,
      "count": 1729,
      "max": [
        1.9962019920349121,
        0.99533897638320923
      ],
      "min": [
        0.87620800733566284,
        -0.99353301525115967
      ],
      "type": "VEC2"
    },
    {
      "bufferView": 0,
      "componentType": 5125,
      "count": 5112,
      "max": [
        1728
      ],
      "min": [
        0
      ],
      "type": "SCALAR"
    },
    {
      "bufferView": 2,
      "byteOffset": 41496,
      "componentType": 5126,
      "count": 334,
      "max": [
        0.21940900385379791,
        0.16182400286197662,
        0.97911602258682251
      ],
      "min": [
        -0.22057199478149414,
        -0.2134770005941391,
        0.31830200552940369
      ],
      "type": "VEC3"
    },
    {
      "bufferView": 2,
      "byteOffset": 45504,
      "componentType": 5126,
      "count": 334,
      "max": [
        0.99401694536209106,
        0.99750387668609619,
        0.9744226336479187
      ],
      "min": [
        -0.99495470523834229,
        -0.98988723754882812,
        -0.99736541509628296
      ],
      "type": "VEC3"
    },
    {
      "bufferView": 3,
      "byteOffset": 27664,
      "componentType": 5126,
      "count": 334,
      "max": [
        0.99944770336151123,
        0.99701273441314697,
        0.91776371002197266,
        1
      ],
      "min": [
        -1,
        -0.99700337648391724,
        -0.99993151426315308,
        -1
      ],
      "type": "VEC4"
    },
    {
      "bufferView": 1,
      "byteOffset": 13832,
      "componentType": 5126,
      "count": 334,
      "max": [
        1.9994230270385742,
        1.9997099637985229
      ],
      "min": [
        0.0024190000258386135,
        -0.76463198661804199
      ],
      "type": "VEC2"
    },
    {
      "bufferView": 0,
      "byteOffset": 20448,
      "componentType": 5125,
      "count": 1086,
      "max": [
        333
      ],
      "min": [
        0
      ],
      "type": "SCALAR"
    }
  ],
  "asset": {
    "extras": {
      "author": "burnt.melon (https://sketchfab.com/burnt.melon)",
      "license": "CC-BY-4.0 (http://creativecommons.org/licenses/by/4.0/)",
      "source": "https://sketchfab.com/3d-models/shrek-ff6a111c58c94d328b0880a38b912428",
      "title": "Shrek"
    },
    "generator": "Sketchfab-6.9.0",
    "version": "2.0"
  },
  "bufferViews": [
    {
      "buffer": 0,
      "byteLength": 24792,
      "byteOffset": 0,
      "name": "floatBufferViews",
      "target": 34963
    },
    {
      "buffer": 0,
      "byteLength": 16504,
      "byteOffset": 24792,
      "byteStride": 8,
      "name": "floatBufferViews",
      "target": 34962
    },
    {
      "buffer": 0,
      "byteLength": 49512,
      "byteOffset": 41296,
      "byteStride": 12,
      "name": "floatBufferViews",
      "target": 34962
    },
    {
      "buffer": 0,
      "byteLength": 33008,
      "byteOffset": 90808,
      "byteStride": 16,
      "name": "floatBufferViews",
      "target": 34962
    }
  ],
  "buffers": [
    {
      "byteLength": 123816,
      "uri": "scene.bin"
    }
  ],
  "images": [
    {
      "uri": "textures/Shrek_baseColor.png"
    },
    {
      "uri": "textures/shrekshirt_S_baseColor.png"
    }
  ],
  "materials": [
    {
      "doubleSided": true,
      "emissiveFactor": [
        0,
        0,
        0
      ],
      "name": "Shrek",
      "pbrMetallicRoughness": {
        "baseColorFactor": [
          1,
          1,
          1,
          1
        ],
        "baseColorTexture": {
          "index": 0,
          "texCoord": 0
        },
        "metallicFactor": 0,
        "roughnessFactor": 1
      }
    },
    {
      "doubleSided": true,
      "emissiveFactor": [
        0,
        0,
        0
      ],
      "name": "shrekshirt_S",
      "pbrMetallicRoughness": {
        "baseColorFactor": [
          1,
          1,
          1,
          1
        ],
        "baseColorTexture": {
          "index": 1,
          "texCoord": 0
        },
        "metallicFactor": 0,
        "roughnessFactor": 1
      }
    }
  ],
  "meshes": [
    {
      "primitives": [
        {
          "attributes": {
            "NORMAL": 1,
            "POSITION": 0,
            "TANGENT": 2,
            "TEXCOORD_0": 3
          },
          "indices": 4,
          "material": 0,
          "mode": 4
        }
      ]
    },
    {
      "primitives": [
        {
          "attributes": {
            "NORMAL": 6,
            "POSITION": 5,
            "TANGENT": 7,
            "TEXCOORD_0": 8
          },
          "indices": 9,
          "material": 1,
          "mode": 4
        }
      ]
    }
  ],
  "nodes": [
    {
      "children": [
        1
      ],
      "name": "RootNode (gltf orientation matrix)",
      "rotation": [
        -0.70710678118654746,
        -0,
        -0,
        0.70710678118654757
      ]
    },
    {
      "children": [
        2
      ],
      "name": "RootNode (model correction matrix)"
    },
    {
      "children": [
        3,
        4
      ],
      "name": "CHARACTER_Shrek.obj.cleaner.materialmerger.gles"
    },
    {
      "mesh": 0,
      "name": ""
    },
    {
      "mesh": 1,
      "name": ""
    }
  ],
  "samplers": [
    {
      "magFilter": 9729,
      "minFilter": 9987,
      "wrapS": 10497,
      "wrapT": 10497
    }
  ],
  "scene": 0,
  "scenes": [
    {
      "name": "OSG_Scene",
      "nodes": [
        0
      ]
    }
  ],
  "textures": [
    {
      "sampler": 0,
      "source": 0
    },
    {
      "sampler": 0,
      "source": 1
    }
  ]
}

